<svg width="377" height="148" viewBox="0 0 377 148" fill="none" xmlns="http://www.w3.org/2000/svg">
<g clip-path="url(#clip0_114_2)">
<rect width="90" height="90" transform="translate(0 22)" fill="white"/>
<path d="M89.1637 53.1184C89.6257 53.1184 90 52.7441 90 52.2821V22.8363C90 22.3742 89.6257 22 89.1637 22H0.836315C0.374251 22 0 22.3742 0 22.8363V111.159C0 111.497 0.203643 111.801 0.515588 111.931C0.827951 112.061 1.18715 111.99 1.42675 111.751L30.6685 82.5981L60.5157 82.5968L60.4739 111.162C60.4735 111.505 60.6822 111.813 61.0004 111.94C61.1007 111.98 61.2061 112 61.3102 112C61.5356 112 61.7568 111.908 61.9178 111.738L89.7713 83.9696C90.0008 83.7266 90.064 83.3704 89.9314 83.0635C89.7993 82.757 89.4974 82.5583 89.1637 82.5583H89.1624L60.5145 82.5964L60.5563 53.1175H89.1637V53.1184Z" fill="black"/>
</g>
<path d="M144.568 69.76C143.629 69.4187 142.52 69.248 141.24 69.248C138.595 69.248 136.205 69.6747 134.072 70.528C132.024 71.296 130.275 72.32 128.824 73.6C127.459 74.88 126.392 76.3733 125.624 78.08C124.941 79.7013 124.6 81.3653 124.6 83.072V112H101.56V48H124.6V59.392C126.648 55.04 129.592 52.0533 133.432 50.432C137.272 48.8107 141.453 48 145.976 48L144.568 69.76ZM175.332 48L188.26 76.8L197.604 48H221.796L202.084 108.928C194.319 129.493 180.921 139.051 161.892 137.6V115.328C165.903 115.84 169.06 115.371 171.364 113.92C173.753 112.555 175.673 110.677 177.124 108.288L150.5 48H175.332ZM235.74 68.48H226.78V48H235.74V44.16C235.74 39.3813 236.295 35.456 237.404 32.384C238.513 29.312 240.092 26.9227 242.14 25.216C244.188 23.424 246.663 22.1867 249.564 21.504C252.465 20.8213 255.751 20.48 259.42 20.48C261.127 20.48 262.961 20.5653 264.924 20.736C266.887 20.8213 268.892 20.9493 270.94 21.12V42.24C267.356 41.8987 264.412 41.8987 262.108 42.24C259.889 42.5813 258.78 43.776 258.78 45.824V48H270.812V68.48H258.78V112H235.74V68.48ZM319.678 112C317.63 112.171 315.625 112.299 313.662 112.384C311.699 112.555 309.865 112.64 308.158 112.64C304.489 112.64 301.203 112.299 298.302 111.616C295.401 110.933 292.926 109.739 290.878 108.032C288.83 106.24 287.251 103.808 286.142 100.736C285.033 97.664 284.478 93.7387 284.478 88.96V68.48H275.39V48H284.478V34.944L307.518 27.264V48H319.422V68.48H307.518V87.296C307.518 89.344 308.627 90.5387 310.846 90.88C313.15 91.2213 316.094 91.2213 319.678 90.88V112ZM369.803 112C367.755 112.171 365.75 112.299 363.787 112.384C361.824 112.555 359.99 112.64 358.283 112.64C354.614 112.64 351.328 112.299 348.427 111.616C345.526 110.933 343.051 109.739 341.003 108.032C338.955 106.24 337.376 103.808 336.267 100.736C335.158 97.664 334.603 93.7387 334.603 88.96V68.48H325.515V48H334.603V34.944L357.643 27.264V48H369.547V68.48H357.643V87.296C357.643 89.344 358.752 90.5387 360.971 90.88C363.275 91.2213 366.219 91.2213 369.803 90.88V112Z" fill="black"/>
<defs>
<clipPath id="clip0_114_2">
<rect width="90" height="90" fill="white" transform="translate(0 22)"/>
</clipPath>
</defs>
</svg>
